<svg xmlns="http://www.w3.org/2000/svg" viewBox="0 0 1600 2400" width="1600" height="2400"><defs><linearGradient id="bgs" x1="0" y1="0" x2="0.28" y2="1"><stop offset="0%" stop-color="#4E1A22"/><stop offset="52%" stop-color="#331016"/><stop offset="100%" stop-color="#1E080C"/></linearGradient><radialGradient id="glows" cx="50%" cy="24%" r="42%"><stop offset="0%" stop-color="#E0B678" stop-opacity="0.20"/><stop offset="60%" stop-color="#C9A264" stop-opacity="0.06"/><stop offset="100%" stop-color="#C9A264" stop-opacity="0"/></radialGradient><linearGradient id="rules" x1="0" y1="0" x2="1" y2="0"><stop offset="0%" stop-color="#C9A264" stop-opacity="0"/><stop offset="50%" stop-color="#DFBE7E" stop-opacity="1"/><stop offset="100%" stop-color="#C9A264" stop-opacity="0"/></linearGradient></defs><rect width="1600" height="2400" fill="url(#bgs)"/><rect width="1600" height="2400" fill="url(#glows)"/><rect x="70" y="70" width="1460" height="2260" fill="none" stroke="#C9A264" stroke-opacity="0.34" stroke-width="2"/><rect x="92" y="92" width="1416" height="2216" fill="none" stroke="#C9A264" stroke-opacity="0.13" stroke-width="1"/><g transform="translate(800,392)" opacity="0.92"><path d="M-88,-96 L88,-96 L64,-6 C58,26 34,46 0,46 C-34,46 -58,26 -64,-6 Z" fill="none" stroke="#DFBE7E" stroke-width="3.5"/><path d="M0,46 L0,110" stroke="#DFBE7E" stroke-width="3.5"/><path d="M-58,124 L58,124" stroke="#DFBE7E" stroke-width="3.5" stroke-linecap="round"/><path d="M-44,-96 L44,-96 L32,-40 C28,-22 16,-12 0,-12 C-16,-12 -28,-22 -32,-40 Z" fill="#DFBE7E" opacity="0.18"/></g><line x1="600" y1="592" x2="1000" y2="592" stroke="url(#rules)" stroke-width="1.5"/><text x="800" y="700" text-anchor="middle" fill="#C9A264" font-family="Georgia, 'Times New Roman', serif" font-size="38" letter-spacing="13">ANDREW MURRAY</text><text x="800" y="912" text-anchor="middle" fill="#F6EFE6" font-family="Georgia, 'Times New Roman', serif" font-size="128" letter-spacing="4">O PODER DO</text><text x="800" y="1092" text-anchor="middle" fill="#F6EFE6" font-family="Georgia, 'Times New Roman', serif" font-size="186" letter-spacing="6">SANGUE</text><text x="800" y="1236" text-anchor="middle" fill="#F6EFE6" font-family="Georgia, 'Times New Roman', serif" font-size="128" letter-spacing="4">DE JESUS</text><line x1="450" y1="1332" x2="1150" y2="1332" stroke="url(#rules)" stroke-width="2"/><text x="800" y="1444" text-anchor="middle" fill="#D9C4A8" font-family="Georgia, 'Times New Roman', serif" font-size="54" font-style="italic">Redenção, purificação</text><text x="800" y="1518" text-anchor="middle" fill="#D9C4A8" font-family="Georgia, 'Times New Roman', serif" font-size="54" font-style="italic">e vida</text><text x="800" y="1652" text-anchor="middle" fill="#9A8578" font-family="Georgia, serif" font-size="29" letter-spacing="8">DEZ CAPÍTULOS · 1896</text><rect x="470" y="1902" width="660" height="106" fill="none" stroke="#C9A264" stroke-opacity="0.55" stroke-width="1.5"/><text x="800" y="1948" text-anchor="middle" fill="#9A8578" font-family="Georgia, serif" font-size="25" letter-spacing="8">TRADUÇÃO INTEGRAL E INÉDITA</text><text x="800" y="1988" text-anchor="middle" fill="#DFBE7E" font-family="Georgia, 'Times New Roman', serif" font-size="34" letter-spacing="9">BÍBLIA INTELIGENTE</text><line x1="680" y1="2130" x2="920" y2="2130" stroke="#C9A264" stroke-opacity="0.4" stroke-width="1"/><text x="800" y="2196" text-anchor="middle" fill="#7E6A62" font-family="Georgia, serif" font-size="25" letter-spacing="6">EDIÇÃO BÍBLIA INTELIGENTE</text></svg>